#!OML:ASF X:\für Bonn\!DataBase\2005_08_11_Bastian_Final\c3d\Bastian.ASF
:FULLY-SPECIFIED
:DEGREES
519
root -0.251085 1.04765 25.9229 -996.421 -2.13674 -903.47
lowerback 16.7803 -4.45232 2.46452
upperback 19.933 -1.48023 -2.14901
thorax 12.7343 2.09121 -3.15914
lowerneck 3.84684 -5.62688 -5.51992
upperneck 28.4059 -3.98731 -1.32385
head 8.33982 -0.952874 0.500882
rclavicle -7.95139e-015 1.82882e-014
rhumerus -33.962 34.9045 -75.0391
rradius 42.8625
rwrist 14.1837
rhand -20.8913 5.88393
rfingers 7.12502
rthumb 5.47933 -24.0252
lclavicle -7.95139e-015 1.82882e-014
lhumerus -221.002 -166.787 257.336
lradius 45.9979
lwrist -4.22811
lhand -17.6134 -13.2731
lfingers 7.12502
lthumb 8.6434 16.53
rfemur -8.1982 5.60674 24.3896
rtibia 34.6921
rfoot 6.11519 -8.49792
rtoes -10.1523
lfemur -1.33171 1.03583 -19.4605
ltibia 23.8583
lfoot 3.23609 6.65392
ltoes -0.633223
520
root -0.255009 1.04631 25.9332 -996.432 -2.13736 -903.428
lowerback 16.2864 -4.37562 2.50619
upperback 19.8128 -1.4873 -2.09613
thorax 12.8492 2.03637 -3.13752
lowerneck 3.8093 -5.604 -5.67413
upperneck 28.4147 -3.98278 -1.21646
head 8.35719 -0.959109 0.562736
rclavicle 1.59028e-014 3.18055e-015
rhumerus -33.8412 35.6366 -75.2101
rradius 42.4175
rwrist 13.8113
rhand -20.6111 6.04684
rfingers 7.12502
rthumb 5.74983 -23.8552
lclavicle 1.59028e-014 3.18055e-015
lhumerus -220.785 -166.128 257.642
lradius 45.4452
lwrist -3.68967
lhand -17.4327 -13.0407
lfingers 7.12502
lthumb 8.81779 16.7551
rfemur -8.09565 5.60328 24.3873
rtibia 34.5402
rfoot 6.01697 -8.38508
rtoes -10.4638
lfemur -1.26973 0.990334 -19.4652
ltibia 23.8079
lfoot 2.91091 6.83288
ltoes -0.719235
521
root -0.258919 1.04511 25.944 -996.42 -2.09182 -903.393
lowerback 15.7864 -4.29324 2.61343
upperback 19.6712 -1.48851 -2.04923
thorax 12.94 1.98888 -3.16105
lowerneck 3.76935 -5.59724 -5.76339
upperneck 28.4541 -3.98926 -1.14737
head 8.38282 -0.964607 0.600394
rclavicle 1.59028e-015 -2.14687e-014
rhumerus -33.805 36.2696 -75.4224
rradius 42.0021
rwrist 13.541
rhand -20.3301 6.2176
rfingers 7.12502
rthumb 6.02109 -23.6768
lclavicle 1.59028e-015 -2.14687e-014
lhumerus -220.561 -165.393 257.935
lradius 44.8564
lwrist -3.11245
lhand -17.2703 -12.8522
lfingers 7.12502
lthumb 8.97455 16.9369
rfemur -8.01782 5.60541 24.4351
rtibia 34.3894
rfoot 5.92332 -8.35664
rtoes -10.8885
lfemur -1.2293 0.913214 -19.4184
ltibia 23.7548
lfoot 2.575 7.06228
ltoes -0.694171
522
root -0.262874 1.04374 25.9536 -996.431 -2.09244 -903.351
lowerback 15.3258 -4.22034 2.64781
upperback 19.5509 -1.49436 -1.99998
thorax 13.0405 1.93725 -3.13936
lowerneck 3.67221 -5.57728 -5.89862
upperneck 28.4662 -3.98872 -1.06118
head 8.41059 -0.976355 0.65029
rclavicle 7.95139e-016 -1.19271e-014
rhumerus -33.7039 36.9807 -75.6044
rradius 41.5766
rwrist 13.1475
rhand -20.0573 6.33479
rfingers 7.12502
rthumb 6.28449 -23.552
lclavicle 7.95139e-016 -1.19271e-014
lhumerus -220.326 -164.608 258.29
lradius 44.3014
lwrist -2.37274
lhand -17.1674 -12.6454
lfingers 7.12502
lthumb 9.07378 17.1394
rfemur -7.9212 5.62342 24.4308
rtibia 34.2513
rfoot 5.7936 -8.43743
rtoes -11.1895
lfemur -1.16349 0.921531 -19.4134
ltibia 23.6902
lfoot 2.2741 7.21087
ltoes -0.800901
523
root -0.2661 1.04249 25.964 -996.431 -2.06878 -903.312
lowerback 14.8694 -4.14052 2.67793
upperback 19.4168 -1.49544 -1.93548
thorax 13.123 1.88313 -3.09944
lowerneck 3.56522 -5.56731 -5.98488
upperneck 28.5099 -3.98407 -1.03316
head 8.4483 -0.983563 0.672763
rclavicle 3.18055e-015 1.31198e-014
rhumerus -33.6107 37.6854 -75.7916
rradius 41.1291
rwrist 12.7654
rhand -19.8297 6.38256
rfingers 7.12502
rthumb 6.50418 -23.4976
lclavicle 3.18055e-015 1.31198e-014
lhumerus -220.094 -163.927 258.63
lradius 43.6989
lwrist -1.82168
lhand -17.0664 -12.4989
lfingers 7.12502
lthumb 9.17128 17.2817
rfemur -7.83015 5.61595 24.4515
rtibia 34.1094
rfoot 5.69003 -8.51646
rtoes -11.7456
lfemur -1.10674 0.854526 -19.3863
ltibia 23.6273
lfoot 1.92964 7.42214
ltoes -0.740386
524
root -0.269867 1.04135 25.9742 -996.43 -2.04502 -903.262
lowerback 14.4279 -4.0669 2.74167
upperback 19.291 -1.49495 -1.8875
thorax 13.2087 1.83993 -3.09599
lowerneck 3.42915 -5.56254 -6.0683
upperneck 28.542 -4.00195 -0.963316
head 8.48811 -1.00075 0.706646
rclavicle 1.74931e-014 1.90833e-014
rhumerus -33.5456 38.3721 -75.9972
rradius 40.723
rwrist 12.3238
rhand -19.6011 6.36677
rfingers 7.12502
rthumb 6.72492 -23.5064
lclavicle 1.74931e-014 1.90833e-014
lhumerus -219.79 -163.217 258.935
lradius 43.0692
lwrist -1.24022
lhand -16.9586 -12.3733
lfingers 7.12502
lthumb 9.27527 17.4026
rfemur -7.74644 5.61565 24.4667
rtibia 33.9812
rfoot 5.55358 -8.69041
rtoes -12.0211
lfemur -1.04794 0.866109 -19.3521
ltibia 23.5586
lfoot 1.65066 7.55003
ltoes -0.787988
525
root -0.273511 1.04055 25.9848 -996.43 -2.04245 -903.213
lowerback 14.0164 -3.99962 2.74647
upperback 19.1546 -1.50643 -1.82874
thorax 13.2656 1.78081 -3.04762
lowerneck 3.30271 -5.53686 -6.17869
upperneck 28.5519 -3.98872 -0.907263
head 8.51846 -1.00841 0.742317
rclavicle -8.74653e-015 2.8625e-014
rhumerus -33.4989 39.0914 -76.1837
rradius 40.3139
rwrist 11.9354
rhand -19.4248 6.24699
rfingers 7.12502
rthumb 6.89507 -23.6207
lclavicle -8.74653e-015 2.8625e-014
lhumerus -219.54 -162.616 259.26
lradius 42.4735
lwrist -0.689434
lhand -16.8181 -12.2219
lfingers 7.12502
lthumb 9.41084 17.548
rfemur -7.65851 5.63044 24.4601
rtibia 33.8513
rfoot 5.44439 -8.89748
rtoes -12.4899
lfemur -0.987238 0.863637 -19.3442
ltibia 23.4887
lfoot 1.3605 7.65498
ltoes -0.820861
526
root -0.277947 1.03979 25.9941 -996.43 -2.02036 -903.155
lowerback 13.6308 -3.93325 2.80529
upperback 19.003 -1.51529 -1.78712
thorax 13.2878 1.73003 -3.04905
lowerneck 3.16821 -5.53239 -6.20921
upperneck 28.6009 -3.99375 -0.887544
head 8.56085 -1.01658 0.751423
rclavicle 6.36111e-015 1.98785e-015
rhumerus -33.4952 39.7536 -76.4323
rradius 39.9074
rwrist 11.5098
rhand -19.2586 6.09709
rfingers 7.12502
rthumb 7.05553 -23.7653
lclavicle 6.36111e-015 1.98785e-015
lhumerus -219.292 -162.017 259.543
lradius 41.851
lwrist -0.203557
lhand -16.6948 -12.133
lfingers 7.12502
lthumb 9.52987 17.6315
rfemur -7.5785 5.55792 24.4533
rtibia 33.7289
rfoot 5.30063 -9.08325
rtoes -12.7961
lfemur -0.923915 0.831508 -19.3172
ltibia 23.4179
lfoot 1.06208 7.76757
ltoes -0.468592
